<svg width="1000" xmlns="http://www.w3.org/2000/svg" height="1000" id="screenshot-caee9abd-4b42-8032-8008-51e550dd46d0" viewBox="0 0 1000 1000" xmlns:xlink="http://www.w3.org/1999/xlink" fill="none" version="1.1"><g id="shape-caee9abd-4b42-8032-8008-51e550dd46d0"><defs><clipPath id="frame-clip-caee9abd-4b42-8032-8008-51e550dd46d0-render-1" class="frame-clip frame-clip-def"><rect rx="0" ry="0" x="0" y="0" width="1000" height="1000" transform="matrix(1.000000, 0.000000, 0.000000, 1.000000, 0.000000, 0.000000)"/></clipPath></defs><g class="frame-container-wrapper"><g class="frame-container-blur"><g class="frame-container-shadows"><g clip-path="url(#frame-clip-caee9abd-4b42-8032-8008-51e550dd46d0-render-1)" fill="none"><g class="fills" id="fills-caee9abd-4b42-8032-8008-51e550dd46d0"><rect rx="0" ry="0" x="0" y="0" width="1000" height="1000" transform="matrix(1.000000, 0.000000, 0.000000, 1.000000, 0.000000, 0.000000)" class="frame-background"/></g><g class="frame-children"><g id="shape-caee9abd-4b42-8032-8008-51e641686f21"><g class="fills" id="fills-caee9abd-4b42-8032-8008-51e641686f21"><rect rx="128" ry="128" x="3.5762786865234375e-7" y="2.384185791015625e-7" transform="matrix(1.000000, 0.000000, 0.000000, 1.000000, 0.000000, 0.000000)" width="999.9999775886533" height="1000" style="fill: rgb(24, 72, 214); fill-opacity: 1;"/></g></g><g id="shape-caee9abd-4b42-8032-8008-51e55e962595" style="display: none;"><defs><pattern patternUnits="userSpaceOnUse" x="0.000010549721707775461" y="0.000024750459715505713" width="999.9999617862509" height="999.9999617862511" id="fill-0-render-3"><g><image id="fill-image-render-3-0" href="https://design.penpot.app/assets/by-file-media-id/93b040dd-50ec-81ff-8008-51e55e11787c" preserveAspectRatio="xMidYMid slice" width="999.9999617862509" height="999.9999617862511" opacity="1"/></g></pattern></defs><g class="fills" id="fills-caee9abd-4b42-8032-8008-51e55e962595"><rect rx="0" ry="0" x="0.000010549721707775461" y="0.000024750459715505713" transform="matrix(1.000000, 0.000000, 0.000000, 1.000000, 0.000000, 0.000000)" width="999.9999617862509" height="999.9999617862511" fill="url(#fill-0-render-3)"/></g></g><g id="shape-caee9abd-4b42-8032-8008-51e5775b9c1c"><g class="fills" id="fills-caee9abd-4b42-8032-8008-51e5775b9c1c"><path d="M116,695L180,695L180,323.02490234375C180,323.02490234375,178.6383056640625,294.41143798828125,211.31915283203125,294.41143798828125C211.31915283203125,294.41143798828125,408.76593017578125,294.41143798828125,408.76593017578125,294.41143798828125C408.76593017578125,294.41143798828125,422.3829345703125,294.41143798828125,430.55316162109375,303.94927978515625C438.723388671875,313.48699951171875,504.0850830078125,389.78961181640625,504.0850830078125,389.78961181640625C504.0850830078125,389.78961181640625,513.6170043945312,403.41510009765625,534.0425415039062,403.41510009765625C554.4680786132812,403.41510009765625,790.04248046875,403.41510009765625,790.04248046875,403.41510009765625C790.04248046875,403.41510009765625,820,402.05255126953125,820,432.02850341796875C820,455.19183349609375,820,695,820,695L883.9998779296875,695L883.9998779296875,425.21575927734375C883.9998779296875,425.21575927734375,883.9998779296875,338.0128173828125,795.4893798828125,338.0128173828125C715.1488647460938,338.0128173828125,546.2978515625,338.0128173828125,546.2978515625,338.0128173828125L478.2127685546875,260.3477783203125C478.2127685546875,260.3477783203125,449.61700439453125,229.0091552734375,418.2978515625,229.0091552734375C386.97869873046875,229.0091552734375,201.7872314453125,229.0091552734375,201.7872314453125,229.0091552734375C201.7872314453125,229.0091552734375,114.6383056640625,226.28411865234375,116,314.849609375C116,314.849609375,116,695,116,695" style="fill: rgb(255, 255, 255); fill-opacity: 1;"/></g></g><g id="shape-caee9abd-4b42-8032-8008-51e72c608ba5"><g class="fills" id="fills-caee9abd-4b42-8032-8008-51e72c608ba5"><path d="M285,486C285,472.7540283203125,295.7540283203125,462,309,462L351,462C364.2459716796875,462,375,472.7540283203125,375,486L375,528C375,541.2459716796875,364.2459716796875,552,351,552L309,552C295.7540283203125,552,285,541.2459716796875,285,528ZM318.727294921875,479.727294921875C309.89666748046875,479.727294921875,302.727294921875,486.89666748046875,302.727294921875,495.727294921875L302.727294921875,518.272705078125C302.727294921875,527.1033935546875,309.89666748046875,534.272705078125,318.727294921875,534.272705078125L341.27276611328125,534.272705078125C350.1033935546875,534.272705078125,357.27276611328125,527.1033935546875,357.27276611328125,518.272705078125L357.27276611328125,495.727294921875C357.27276611328125,486.89666748046875,350.1033935546875,479.727294921875,341.27276611328125,479.727294921875Z" style="fill: rgb(255, 255, 255); fill-opacity: 1;"/></g></g><g id="shape-caee9abd-4b42-8032-8008-51e791a53f5b"><g class="fills" id="fills-caee9abd-4b42-8032-8008-51e791a53f5b"><path d="M490,493C490,479.7540283203125,500.7540283203125,469,514,469L556.0000610351562,469C569.2460327148438,469,580.0000610351562,479.7540283203125,580.0000610351562,493L580.0000610351562,534.9998779296875C580.0000610351562,548.245849609375,569.2460327148438,558.9998779296875,556.0000610351562,558.9998779296875L514,558.9998779296875C500.7540283203125,558.9998779296875,490,548.245849609375,490,534.9998779296875ZM523.727294921875,486.727294921875C514.8966674804688,486.727294921875,507.727294921875,493.89666748046875,507.727294921875,502.727294921875L507.727294921875,525.2725830078125C507.727294921875,534.103271484375,514.8966674804688,541.2725830078125,523.727294921875,541.2725830078125L546.2727661132812,541.2725830078125C555.1033935546875,541.2725830078125,562.2727661132812,534.103271484375,562.2727661132812,525.2725830078125L562.2727661132812,502.727294921875C562.2727661132812,493.89666748046875,555.1033935546875,486.727294921875,546.2727661132812,486.727294921875Z" style="fill: rgb(255, 255, 255); fill-opacity: 1;"/></g></g><g id="shape-caee9abd-4b42-8032-8008-51e79afde332"><g class="fills" id="fills-caee9abd-4b42-8032-8008-51e79afde332"><path d="M643,582.9998779296875C643,569.75390625,653.7540283203125,558.9998779296875,667,558.9998779296875L709,558.9998779296875C722.2459716796875,558.9998779296875,733,569.75390625,733,582.9998779296875L733,624.9998779296875C733,638.245849609375,722.2459716796875,648.9998779296875,709,648.9998779296875L667,648.9998779296875C653.7540283203125,648.9998779296875,643,638.245849609375,643,624.9998779296875ZM676.727294921875,576.7271728515625C667.8966674804688,576.7271728515625,660.727294921875,583.896484375,660.727294921875,592.7271728515625L660.727294921875,615.2725830078125C660.727294921875,624.103271484375,667.8966674804688,631.2725830078125,676.727294921875,631.2725830078125L699.2727661132812,631.2725830078125C708.1033935546875,631.2725830078125,715.2727661132812,624.103271484375,715.2727661132812,615.2725830078125L715.2727661132812,592.7271728515625C715.2727661132812,583.896484375,708.1033935546875,576.7271728515625,699.2727661132812,576.7271728515625Z" style="fill: rgb(255, 255, 255); fill-opacity: 1;"/></g></g><g id="shape-caee9abd-4b42-8032-8008-51e79f486797"><g class="fills" id="fills-caee9abd-4b42-8032-8008-51e79f486797"><path d="M490,629.0001220703125C490,615.754150390625,500.7540283203125,605.0001220703125,514,605.0001220703125L556.0000610351562,605.0001220703125C569.2460327148438,605.0001220703125,580.0000610351562,615.754150390625,580.0000610351562,629.0001220703125L580.0000610351562,671C580.0000610351562,684.2459716796875,569.2460327148438,695,556.0000610351562,695L514,695C500.7540283203125,695,490,684.2459716796875,490,671ZM523.727294921875,622.727294921875C514.8966674804688,622.727294921875,507.727294921875,629.8966064453125,507.727294921875,638.727294921875L507.727294921875,661.272705078125C507.727294921875,670.1033935546875,514.8966674804688,677.272705078125,523.727294921875,677.272705078125L546.2727661132812,677.272705078125C555.1033935546875,677.272705078125,562.2727661132812,670.1033935546875,562.2727661132812,661.272705078125L562.2727661132812,638.727294921875C562.2727661132812,629.8966064453125,555.1033935546875,622.727294921875,546.2727661132812,622.727294921875Z" style="fill: rgb(255, 255, 255); fill-opacity: 1;"/></g></g><g id="shape-caee9abd-4b42-8032-8008-51e7543b80a8"><g class="fills" id="fills-caee9abd-4b42-8032-8008-51e7543b80a8"><rect rx="0" ry="0" x="163.0000214583181" y="494.9999848526895" transform="matrix(1.000000, 0.000000, 0.000000, 1.000000, 0.000000, 0.000000)" width="124.99998748300413" height="24.999902049800994" style="fill: rgb(255, 255, 255); fill-opacity: 1;"/></g></g><g id="shape-caee9abd-4b42-8032-8008-51e78279e3a6"><g class="fills" id="fills-caee9abd-4b42-8032-8008-51e78279e3a6"><rect rx="0" ry="0" x="560.4528479694517" y="432.53295859720845" transform="matrix(-0.958792, 0.284108, -0.284108, -0.958792, 1514.149356, 670.449818)" width="295.99995051053963" height="24.999776996470587" style="fill: rgb(255, 255, 255); fill-opacity: 1;"/></g></g><g id="shape-caee9abd-4b42-8032-8008-51e7a38e0839"><g class="fills" id="fills-caee9abd-4b42-8032-8008-51e7a38e0839"><rect rx="0" ry="0" x="558.9453004467306" y="547.2913802375838" transform="matrix(-0.929551, -0.368695, 0.368695, -0.929551, 972.457705, 1305.398175)" width="103.99991682722361" height="25.00016500015795" style="fill: rgb(255, 255, 255); fill-opacity: 1;"/></g></g><g id="shape-caee9abd-4b42-8032-8008-51e7c78ae457"><g class="fills" id="fills-caee9abd-4b42-8032-8008-51e7c78ae457"><rect rx="0" ry="0" x="563.6044954869546" y="588.9143316742507" transform="matrix(0.844369, -0.535762, 0.535762, 0.844369, -226.407635, 423.415484)" width="103.99928478780248" height="24.999475095020216" style="fill: rgb(255, 255, 255); fill-opacity: 1;"/></g></g></g></g></g></g></g></g></svg>